<svg width="15" height="14" viewBox="0 0 15 14" fill="none" xmlns="http://www.w3.org/2000/svg">
<path d="M14 10C14 10.3536 13.8595 10.6928 13.6094 10.9428C13.3594 11.1929 13.0202 11.3334 12.6666 11.3334H3.88529C3.5317 11.3334 3.19262 11.474 2.94263 11.724L1.47463 13.192C1.40843 13.2582 1.32409 13.3033 1.23229 13.3215C1.14048 13.3398 1.04531 13.3304 0.958831 13.2946C0.872348 13.2588 0.798428 13.1981 0.746416 13.1203C0.694405 13.0425 0.666638 12.951 0.666626 12.8574V2.00002C0.666626 1.6464 0.807102 1.30726 1.05715 1.05721C1.3072 0.807163 1.64634 0.666687 1.99996 0.666687H12.6666C13.0202 0.666687 13.3594 0.807163 13.6094 1.05721C13.8595 1.30726 14 1.6464 14 2.00002V10Z" stroke="#6B5B66" stroke-width="1.33333" stroke-linecap="round" stroke-linejoin="round"/>
</svg>
