<svg width="15" height="15" viewBox="0 0 15 15" fill="none" xmlns="http://www.w3.org/2000/svg">
<path d="M5.96252 7.95567C6.24883 8.33842 6.6141 8.65512 7.03356 8.88429C7.45302 9.11346 7.91686 9.24974 8.39362 9.28389C8.87039 9.31803 9.34892 9.24924 9.79675 9.08219C10.2446 8.91513 10.6513 8.65371 10.9892 8.31567L12.9892 6.31567C13.5964 5.68699 13.9324 4.84498 13.9248 3.97099C13.9172 3.09701 13.5666 2.26096 12.9486 1.64294C12.3306 1.02491 11.4945 0.674347 10.6205 0.666752C9.74654 0.659157 8.90453 0.995139 8.27586 1.60233L7.12919 2.74233" stroke="#300D21" stroke-width="1.33333" stroke-linecap="round" stroke-linejoin="round"/>
<path d="M8.629 6.62226C8.3427 6.23951 7.97743 5.92281 7.55796 5.69363C7.1385 5.46446 6.67466 5.32818 6.1979 5.29404C5.72114 5.25989 5.24261 5.32868 4.79477 5.49574C4.34693 5.6628 3.94026 5.92421 3.60233 6.26226L1.60233 8.26226C0.995139 8.89094 0.659157 9.73294 0.666752 10.6069C0.674347 11.4809 1.02491 12.317 1.64294 12.935C2.26096 13.553 3.09701 13.9036 3.97099 13.9112C4.84498 13.9188 5.68699 13.5828 6.31566 12.9756L7.45566 11.8356" stroke="#300D21" stroke-width="1.33333" stroke-linecap="round" stroke-linejoin="round"/>
</svg>
