<svg width="12" height="15" viewBox="0 0 12 15" fill="none" xmlns="http://www.w3.org/2000/svg">
<path d="M11.3333 8.00026C11.3333 11.3336 8.99996 13.0003 6.22663 13.9669C6.0814 14.0161 5.92365 14.0138 5.77996 13.9603C2.99996 13.0003 0.666626 11.3336 0.666626 8.00026V3.33359C0.666626 3.15678 0.736864 2.98721 0.861888 2.86219C0.986913 2.73716 1.15648 2.66693 1.33329 2.66693C2.66663 2.66693 4.33329 1.86693 5.49329 0.853592C5.63453 0.732925 5.8142 0.666626 5.99996 0.666626C6.18572 0.666626 6.36539 0.732925 6.50663 0.853592C7.67329 1.87359 9.33329 2.66693 10.6666 2.66693C10.8434 2.66693 11.013 2.73716 11.138 2.86219C11.2631 2.98721 11.3333 3.15678 11.3333 3.33359V8.00026Z" stroke="#300D21" stroke-width="1.33333" stroke-linecap="round" stroke-linejoin="round"/>
</svg>
