<svg width="12" height="15" viewBox="0 0 12 15" fill="none" xmlns="http://www.w3.org/2000/svg">
<path d="M11.3333 6.00002C11.3333 9.32869 7.64063 12.7954 6.40063 13.866C6.28511 13.9529 6.14449 13.9999 5.99996 13.9999C5.85543 13.9999 5.71481 13.9529 5.59929 13.866C4.35929 12.7954 0.666626 9.32869 0.666626 6.00002C0.666626 4.58553 1.22853 3.22898 2.22872 2.22878C3.22892 1.22859 4.58547 0.666687 5.99996 0.666687C7.41445 0.666687 8.771 1.22859 9.7712 2.22878C10.7714 3.22898 11.3333 4.58553 11.3333 6.00002Z" stroke="#300D21" stroke-width="1.33333" stroke-linecap="round" stroke-linejoin="round"/>
<path d="M5.99988 7.99994C7.10445 7.99994 7.99988 7.10451 7.99988 5.99994C7.99988 4.89537 7.10445 3.99994 5.99988 3.99994C4.89531 3.99994 3.99988 4.89537 3.99988 5.99994C3.99988 7.10451 4.89531 7.99994 5.99988 7.99994Z" stroke="#300D21" stroke-width="1.33333" stroke-linecap="round" stroke-linejoin="round"/>
</svg>
