<svg width="12" height="15" viewBox="0 0 12 15" fill="none" xmlns="http://www.w3.org/2000/svg">
<path d="M5.99988 5.99994H6.00654" stroke="#300D21" stroke-width="1.33333" stroke-linecap="round" stroke-linejoin="round"/>
<path d="M5.99988 8.66669H6.00654" stroke="#300D21" stroke-width="1.33333" stroke-linecap="round" stroke-linejoin="round"/>
<path d="M5.99988 3.33331H6.00654" stroke="#300D21" stroke-width="1.33333" stroke-linecap="round" stroke-linejoin="round"/>
<path d="M8.66663 5.99994H8.67329" stroke="#300D21" stroke-width="1.33333" stroke-linecap="round" stroke-linejoin="round"/>
<path d="M8.66663 8.66669H8.67329" stroke="#300D21" stroke-width="1.33333" stroke-linecap="round" stroke-linejoin="round"/>
<path d="M8.66663 3.33331H8.67329" stroke="#300D21" stroke-width="1.33333" stroke-linecap="round" stroke-linejoin="round"/>
<path d="M3.33313 5.99994H3.3398" stroke="#300D21" stroke-width="1.33333" stroke-linecap="round" stroke-linejoin="round"/>
<path d="M3.33313 8.66669H3.3398" stroke="#300D21" stroke-width="1.33333" stroke-linecap="round" stroke-linejoin="round"/>
<path d="M3.33313 3.33331H3.3398" stroke="#300D21" stroke-width="1.33333" stroke-linecap="round" stroke-linejoin="round"/>
<path d="M3.99988 14V12C3.99988 11.8232 4.07012 11.6536 4.19514 11.5286C4.32016 11.4036 4.48973 11.3333 4.66654 11.3333H7.33321C7.51002 11.3333 7.67959 11.4036 7.80462 11.5286C7.92964 11.6536 7.99988 11.8232 7.99988 12V14" stroke="#300D21" stroke-width="1.33333" stroke-linecap="round" stroke-linejoin="round"/>
<path d="M9.99996 0.666687H1.99996C1.26358 0.666687 0.666626 1.26364 0.666626 2.00002V12.6667C0.666626 13.4031 1.26358 14 1.99996 14H9.99996C10.7363 14 11.3333 13.4031 11.3333 12.6667V2.00002C11.3333 1.26364 10.7363 0.666687 9.99996 0.666687Z" stroke="#300D21" stroke-width="1.33333" stroke-linecap="round" stroke-linejoin="round"/>
</svg>
