<svg width="15" height="15" viewBox="0 0 15 15" fill="none" xmlns="http://www.w3.org/2000/svg">
<path d="M8.55463 10.3786C8.69231 10.4419 8.84743 10.4563 8.99442 10.4196C9.14141 10.3829 9.27152 10.2972 9.36329 10.1766L9.59996 9.86663C9.72415 9.70103 9.8852 9.56663 10.0703 9.47406C10.2555 9.38149 10.4596 9.33329 10.6666 9.33329H12.6666C13.0202 9.33329 13.3594 9.47377 13.6094 9.72382C13.8595 9.97387 14 10.313 14 10.6666V12.6666C14 13.0202 13.8595 13.3594 13.6094 13.6094C13.3594 13.8595 13.0202 14 12.6666 14C9.48403 14 6.43178 12.7357 4.18134 10.4852C1.93091 8.2348 0.666626 5.18256 0.666626 1.99996C0.666626 1.64634 0.807102 1.3072 1.05715 1.05715C1.3072 0.807102 1.64634 0.666626 1.99996 0.666626H3.99996C4.35358 0.666626 4.69272 0.807102 4.94277 1.05715C5.19282 1.3072 5.33329 1.64634 5.33329 1.99996V3.99996C5.33329 4.20695 5.2851 4.4111 5.19253 4.59624C5.09996 4.78138 4.96555 4.94243 4.79996 5.06663L4.48796 5.30063C4.36557 5.39408 4.27931 5.52702 4.24382 5.67686C4.20833 5.8267 4.22581 5.98421 4.29329 6.12263C5.20441 7.9732 6.70291 9.46982 8.55463 10.3786Z" stroke="#300D21" stroke-width="1.33333" stroke-linecap="round" stroke-linejoin="round"/>
</svg>
