<svg width="15" height="14" viewBox="0 0 15 14" fill="none" xmlns="http://www.w3.org/2000/svg">
<path d="M6.66663 0.666687V2.00002" stroke="#300D21" stroke-width="1.33333" stroke-linecap="round" stroke-linejoin="round"/>
<path d="M2.66663 0.666687V2.00002" stroke="#300D21" stroke-width="1.33333" stroke-linecap="round" stroke-linejoin="round"/>
<path d="M2.66663 1.33331H1.99996C1.64634 1.33331 1.3072 1.47379 1.05715 1.72384C0.807102 1.97389 0.666626 2.31302 0.666626 2.66665V5.33331C0.666626 6.39418 1.08805 7.41159 1.8382 8.16174C2.58834 8.91189 3.60576 9.33331 4.66663 9.33331C5.72749 9.33331 6.74491 8.91189 7.49505 8.16174C8.2452 7.41159 8.66663 6.39418 8.66663 5.33331V2.66665C8.66663 2.31302 8.52615 1.97389 8.2761 1.72384C8.02605 1.47379 7.68691 1.33331 7.33329 1.33331H6.66663" stroke="#300D21" stroke-width="1.33333" stroke-linecap="round" stroke-linejoin="round"/>
<path d="M4.66663 9.33331C4.66663 10.3942 5.08805 11.4116 5.8382 12.1617C6.58834 12.9119 7.60576 13.3333 8.66663 13.3333C9.72749 13.3333 10.7449 12.9119 11.4951 12.1617C12.2452 11.4116 12.6666 10.3942 12.6666 9.33331V7.33331" stroke="#300D21" stroke-width="1.33333" stroke-linecap="round" stroke-linejoin="round"/>
<path d="M12.6667 7.33335C13.4031 7.33335 14 6.7364 14 6.00002C14 5.26364 13.4031 4.66669 12.6667 4.66669C11.9303 4.66669 11.3334 5.26364 11.3334 6.00002C11.3334 6.7364 11.9303 7.33335 12.6667 7.33335Z" stroke="#300D21" stroke-width="1.33333" stroke-linecap="round" stroke-linejoin="round"/>
</svg>
