<svg width="16" height="16" viewBox="0 0 16 16" fill="none" xmlns="http://www.w3.org/2000/svg">
<g clip-path="url(#clip0_2919_4276)">
<path d="M8.00004 14.6667C11.6819 14.6667 14.6667 11.6819 14.6667 8.00004C14.6667 4.31814 11.6819 1.33337 8.00004 1.33337C4.31814 1.33337 1.33337 4.31814 1.33337 8.00004C1.33337 11.6819 4.31814 14.6667 8.00004 14.6667Z" stroke="#300D21" stroke-width="1.33333" stroke-linecap="round" stroke-linejoin="round"/>
<path d="M6.05994 6.00001C6.21667 5.55446 6.52604 5.17875 6.93324 4.93944C7.34044 4.70012 7.8192 4.61264 8.28472 4.69249C8.75024 4.77234 9.17248 5.01436 9.47665 5.3757C9.78083 5.73703 9.94731 6.19436 9.9466 6.66668C9.9466 8.00001 7.9466 8.66668 7.9466 8.66668" stroke="#300D21" stroke-width="1.33333" stroke-linecap="round" stroke-linejoin="round"/>
<path d="M8 11.3334H8.00667" stroke="#300D21" stroke-width="1.33333" stroke-linecap="round" stroke-linejoin="round"/>
</g>
<defs>
<clipPath id="clip0_2919_4276">
<rect width="16" height="16" fill="white"/>
</clipPath>
</defs>
</svg>
