<svg width="16" height="16" viewBox="0 0 16 16" fill="none" xmlns="http://www.w3.org/2000/svg">
<path d="M10.6667 14V12.6667C10.6667 11.9594 10.3858 11.2811 9.88566 10.781C9.38556 10.281 8.70728 10 8.00004 10H4.00004C3.2928 10 2.61452 10.281 2.11442 10.781C1.61433 11.2811 1.33337 11.9594 1.33337 12.6667V14" stroke="#6B5B66" stroke-width="1.33333" stroke-linecap="round" stroke-linejoin="round"/>
<path d="M6.00004 7.33333C7.4728 7.33333 8.66671 6.13943 8.66671 4.66667C8.66671 3.19391 7.4728 2 6.00004 2C4.52728 2 3.33337 3.19391 3.33337 4.66667C3.33337 6.13943 4.52728 7.33333 6.00004 7.33333Z" stroke="#6B5B66" stroke-width="1.33333" stroke-linecap="round" stroke-linejoin="round"/>
<path d="M12.6666 5.33331V9.33331" stroke="#6B5B66" stroke-width="1.33333" stroke-linecap="round" stroke-linejoin="round"/>
<path d="M14.6666 7.33331H10.6666" stroke="#6B5B66" stroke-width="1.33333" stroke-linecap="round" stroke-linejoin="round"/>
</svg>
