<svg width="15" height="14" viewBox="0 0 15 14" fill="none" xmlns="http://www.w3.org/2000/svg">
<path d="M9.99996 12.6666V11.3333C9.99996 10.626 9.71901 9.94777 9.21891 9.44768C8.71881 8.94758 8.04054 8.66663 7.33329 8.66663H3.33329C2.62605 8.66663 1.94777 8.94758 1.44767 9.44768C0.947578 9.94777 0.666626 10.626 0.666626 11.3333V12.6666" stroke="#300D21" stroke-width="1.33333" stroke-linecap="round" stroke-linejoin="round"/>
<path d="M10.0001 0.751953C10.572 0.9002 11.0784 1.23413 11.4399 1.70133C11.8014 2.16853 11.9976 2.74255 11.9976 3.33329C11.9976 3.92403 11.8014 4.49805 11.4399 4.96525C11.0784 5.43244 10.572 5.76637 10.0001 5.91462" stroke="#300D21" stroke-width="1.33333" stroke-linecap="round" stroke-linejoin="round"/>
<path d="M14.0001 12.6666V11.3333C13.9997 10.7424 13.803 10.1685 13.441 9.70151C13.079 9.23453 12.5722 8.90101 12.0001 8.7533" stroke="#300D21" stroke-width="1.33333" stroke-linecap="round" stroke-linejoin="round"/>
<path d="M5.33329 5.99996C6.80605 5.99996 7.99996 4.80605 7.99996 3.33329C7.99996 1.86053 6.80605 0.666626 5.33329 0.666626C3.86053 0.666626 2.66663 1.86053 2.66663 3.33329C2.66663 4.80605 3.86053 5.99996 5.33329 5.99996Z" stroke="#300D21" stroke-width="1.33333" stroke-linecap="round" stroke-linejoin="round"/>
</svg>
